<svg width="105" height="83" viewBox="0 0 105 83" fill="none" xmlns="http://www.w3.org/2000/svg">
<path d="M0.00195312 25.0982C1.15052 23.0131 2.93511 22.4408 5.259 22.4511C20.8078 22.5232 36.3567 22.4944 51.9076 22.4841C55.7485 22.482 58.6322 20.5513 59.612 17.332C60.5197 14.3494 59.8549 11.6797 57.5948 9.56375C55.3903 7.50127 52.7556 6.95375 49.878 8.03233C46.9984 9.11297 45.4896 11.2866 45.0429 14.265C45.0018 14.5388 45.0244 14.8208 45.0018 15.0966C44.8062 17.332 43.1534 18.8675 41.0621 18.7646C39.0181 18.6637 37.5958 17.0788 37.5567 14.862C37.3982 5.8834 45.9795 -1.35996 54.9045 0.216745C62.8621 1.6226 68.0204 8.35755 67.3864 16.5148C66.808 23.9743 60.3427 29.9724 52.5745 30.0053C36.4699 30.0753 20.3653 30.0156 4.2607 30.0444C2.23733 30.0485 0.942623 29.0811 0.00195312 27.4303C0.00195312 26.6543 0.00195312 25.8762 0.00195312 25.0982Z" fill="#328098"/>
<path d="M0.00195312 55.0988C1.10112 53.0672 2.8219 52.4559 5.0861 52.4662C20.8017 52.5279 36.5152 52.4785 52.2307 52.5074C59.6696 52.5218 65.6512 57.3733 67.1826 64.5199C68.9899 72.9489 63.0289 81.2935 54.4167 82.3885C45.7531 83.4898 37.9334 76.9668 37.5732 68.3423C37.4599 65.6356 38.7958 63.8777 41.0497 63.7666C43.3119 63.6554 44.8042 65.2177 45.0203 67.9245C45.3188 71.6686 47.8876 74.4021 51.64 74.9682C54.7707 75.4395 58.1135 73.4717 59.3917 70.3986C60.7564 67.1217 59.7067 63.4455 56.7982 61.3789C55.2359 60.2674 53.4575 60.0265 51.5803 60.0286C36.1426 60.0492 20.7049 60.006 5.26723 60.078C2.94335 60.0883 1.14846 59.5284 0.00195312 57.433C0.00195313 56.6529 0.00195312 55.8748 0.00195312 55.0988Z" fill="#328098"/>
<path d="M0.00205836 40.431C0.111151 40.431 0.220244 40.431 0.327279 40.429C0.810993 40.9847 0.810993 41.5425 0.329337 42.0983L0.164669 42.0962H0C0.00205836 41.5425 0.00205836 40.9868 0.00205836 40.431Z" fill="#DFECEF"/>
<path d="M0.329207 42.1002C0.329207 41.5445 0.329207 40.9866 0.327148 40.4309C1.14226 38.1585 2.81776 37.4524 5.13959 37.4545C33.125 37.4915 61.1125 37.473 89.0979 37.4895C91.0307 37.4916 92.8442 37.2507 94.4476 36.0445C97.1502 34.0088 98.2206 30.347 96.967 27.2553C95.6909 24.1122 92.3193 22.095 89.1226 22.5623C85.5102 23.0892 82.9393 25.7424 82.5976 29.2911C82.5606 29.678 82.538 30.0671 82.468 30.4479C82.0892 32.57 80.3643 33.9491 78.3615 33.7433C76.4246 33.5436 75.0311 31.936 74.9941 29.853C74.8582 22.4758 81.1609 15.6236 88.5751 15.0904C97.2326 14.4668 104.62 20.8065 104.984 29.1717C105.367 37.9423 98.622 45.0313 89.7649 45.0395C61.446 45.0663 33.1271 45.0416 4.80819 45.0663C2.57899 45.0704 1.09492 44.1853 0.329207 42.1002Z" fill="#328098"/>
</svg>
