<svg width="105" height="96" viewBox="0 0 105 96" fill="none" xmlns="http://www.w3.org/2000/svg">
<path d="M14.8057 84.8071C10.7209 84.8071 6.63606 84.822 2.55126 84.8007C0.0918397 84.79 -0.6334 83.5144 0.567512 81.3622C3.67751 75.7928 6.80031 70.2298 9.9039 64.6561C10.9256 62.8195 10.8574 62.7257 8.73499 62.7171C8.04388 62.715 7.35277 62.7385 6.66379 62.7107C4.59046 62.6254 3.81616 61.16 4.98721 59.4173C6.10706 57.7471 7.3357 56.1473 8.51955 54.5198C11.5293 50.3817 14.5433 46.2457 17.5445 42.1011C17.7984 41.7492 18.2996 41.4271 18.0373 40.913C17.777 40.4011 17.2182 40.6528 16.7851 40.6059C15.5309 40.4693 14.0164 41.0965 13.2229 39.5649C12.3996 37.9715 13.7391 36.9882 14.4708 35.9003C17.9989 30.653 21.5781 25.4398 25.1254 20.2053C25.4048 19.7936 25.9573 19.3841 25.7227 18.8551C25.4262 18.1853 24.7052 18.55 24.1719 18.4967C23.2867 18.4093 22.2522 18.7505 21.7232 17.6862C21.1963 16.6303 22.0218 15.9605 22.5487 15.2438C25.8805 10.7004 29.2294 6.1719 32.5676 1.63489C34.1568 -0.523764 35.2489 -0.542962 36.8039 1.56663C40.2147 6.19537 43.6275 10.822 47.0383 15.4486C47.5481 16.1397 48.2094 16.8137 47.674 17.7672C47.1898 18.629 46.3109 18.4391 45.5153 18.4988C44.9138 18.5436 44.1139 18.1661 43.7555 18.7953C43.3844 19.4459 44.1203 19.9323 44.4509 20.4207C48.1219 25.8494 51.8249 31.2567 55.5129 36.6746C56.0889 37.5215 56.8312 38.3384 56.2659 39.4945C55.658 40.7338 54.5211 40.6165 53.4226 40.6037C53.1346 40.5995 52.8466 40.5867 52.5608 40.608C52.1747 40.6336 51.699 40.4587 51.4367 40.8448C51.0847 41.361 51.5924 41.6958 51.8377 42.0371C54.3568 45.5375 56.8589 49.0528 59.4548 52.4955C60.1353 53.3978 60.131 53.9524 59.4442 54.8504C57.3474 57.5871 55.3679 60.4134 53.3479 63.2099C51.3343 65.9935 51.6969 68.0903 54.6533 69.9525C55.4809 70.4729 55.0714 70.8121 54.8005 71.2963C53.0898 74.3551 51.3812 77.4182 49.6726 80.4791C49.0519 81.5883 48.4056 82.6954 48.7277 84.0477C48.941 84.9436 48.3011 84.8007 47.8147 84.8049C45.8587 84.8177 43.9006 84.854 41.9467 84.7922C40.9506 84.7623 40.6477 85.142 40.6669 86.0976C40.7138 88.4546 40.6989 90.8159 40.6754 93.1729C40.6541 95.3358 40.0739 95.899 37.8726 95.9203C35.8014 95.9416 33.7302 95.9374 31.659 95.9224C29.3062 95.9032 28.7665 95.3401 28.7559 92.9148C28.7473 90.7284 28.694 88.5399 28.7772 86.3578C28.822 85.1654 28.4615 84.7623 27.2329 84.7836C23.0926 84.8497 18.9481 84.8071 14.8057 84.8071Z" fill="#327F98"/>
<path d="M93.477 84.8071C90.6571 84.8071 87.8393 84.7943 85.0194 84.8114C82.4533 84.8263 82.7818 84.517 82.7647 87.1492C82.7498 89.3356 82.7349 91.522 82.769 93.7062C82.7925 95.2356 82.0544 95.9246 80.5698 95.9203C78.9594 95.9161 77.3489 95.9097 75.7384 95.9225C74.1685 95.9353 73.4113 95.1908 73.4283 93.606C73.4539 91.3044 73.343 88.9986 73.4667 86.7055C73.5457 85.2252 73.1702 84.7389 71.5939 84.7666C65.6704 84.869 59.7448 84.8114 53.8191 84.805C51.108 84.8028 50.6473 83.9603 51.9932 81.5713C54.2522 77.5675 56.5004 73.5552 58.738 69.5408C59.7149 67.7853 59.6978 67.7896 57.6245 67.764C56.6156 67.7512 55.4531 68.037 54.8665 66.8596C54.314 65.7504 55.2035 65.0251 55.756 64.2594C58.6185 60.3004 61.5131 56.3628 64.3692 52.3996C64.6892 51.9559 65.3377 51.5143 65.0881 50.9299C64.8129 50.2814 64.0642 50.6355 63.531 50.6121C62.7076 50.5758 61.8949 50.6078 61.4662 49.7098C61.0758 48.8907 61.5408 48.27 61.961 47.6514C64.8023 43.4663 67.6371 39.2749 70.5039 35.1069C71.1972 34.1001 71.6152 33.3812 69.8 33.4793C69.1324 33.5156 68.3474 33.5455 68.0104 32.752C67.7117 32.0481 68.2407 31.5596 68.6076 31.0605C71.195 27.5409 73.7846 24.0214 76.389 20.5125C77.7243 18.7122 78.5029 18.7015 79.7998 20.4506C82.368 23.9126 84.9362 27.3788 87.4831 30.8578C87.9054 31.4359 88.5923 31.999 88.1486 32.8458C87.7582 33.5881 86.9669 33.5028 86.3013 33.4793C84.7357 33.426 85.0279 34.0787 85.6422 34.9746C88.4408 39.0488 91.2266 43.1336 94.0102 47.2205C94.5222 47.9735 95.1941 48.7179 94.7419 49.7311C94.2534 50.8254 93.2231 50.5331 92.3315 50.6035C91.907 50.6377 91.329 50.3582 91.0965 50.8958C90.881 51.3949 91.3887 51.7149 91.6468 52.0711C94.68 56.2625 97.7175 60.4519 100.759 64.6369C101.235 65.2918 101.798 65.9189 101.386 66.8148C100.941 67.7853 100.051 67.7576 99.1744 67.7725C96.5763 67.8152 96.5614 67.828 97.8391 70.1317C99.9593 73.9498 102.101 77.7595 104.234 81.5691C105.633 84.0691 105.192 84.805 102.274 84.8071C99.345 84.8092 96.4099 84.8071 93.477 84.8071Z" fill="#327F98"/>
</svg>
