<svg width="40" height="41" viewBox="0 0 40 41" fill="none" xmlns="http://www.w3.org/2000/svg">
<g filter="url(#filter0_d_376_890)">
<path d="M18.2864 5.25093L18.2874 5.25071C19.0645 5.07876 19.8604 5.28547 20.4186 5.78062L20.421 5.7828C20.7058 6.03312 20.8411 6.22501 20.923 6.44075C21.0127 6.67669 21.0636 7.00695 21.0636 7.58001V8.32125V8.87133L21.5889 9.03437L22.04 9.17436C22.0401 9.17439 22.0402 9.17442 22.0403 9.17445C24.918 10.0688 27.2095 12.247 28.0091 14.7579L28.0098 14.7601C28.2722 15.5754 28.306 15.8049 28.3658 18.0876C28.3658 18.0876 28.3658 18.0877 28.3658 18.0878L29.1122 18.0682C29.1719 20.4612 29.225 20.9573 29.5835 22.2413L18.2864 5.25093ZM18.2864 5.25093C17.85 5.34685 17.5468 5.49994 17.2184 5.78864C16.9368 6.03627 16.8035 6.2251 16.7224 6.43883C16.6335 6.6733 16.5826 7.00358 16.5826 7.58001V8.32125V8.86272L16.0679 9.03096L15.5501 9.20022L15.5492 9.20051C12.6238 10.1528 10.443 12.2411 9.63684 14.7644L9.63657 14.7652M18.2864 5.25093L9.63657 14.7652M9.63657 14.7652C9.38023 15.5643 9.34005 15.8131 9.28035 18.0877L9.63657 14.7652ZM32.722 28.7669L33.2345 28.2238L9.28035 18.0878C9.22011 20.4945 9.16507 21.0567 8.78227 22.4404L8.78188 22.4418C8.34394 24.0131 7.5505 25.5965 6.52198 26.9624C6.06715 27.5684 5.65439 28.0284 4.66012 29.0376C4.64926 29.0489 4.64758 29.0553 4.6473 29.0564C4.64729 29.0564 4.64729 29.0564 4.64728 29.0564C4.6467 29.0585 4.64585 29.0634 4.64768 29.0716C4.65042 29.084 4.66189 29.1136 4.70704 29.139C4.71142 29.1396 4.71652 29.1402 4.72237 29.1408C4.75028 29.1439 4.79075 29.1475 4.84912 29.1511C5.09095 29.166 5.54651 29.177 6.4564 29.1843C8.26554 29.1989 11.7976 29.1989 18.8231 29.1989C25.8485 29.1989 29.3806 29.1989 31.1897 29.1843C32.0996 29.177 32.5552 29.166 32.797 29.1511C32.8554 29.1475 32.8958 29.1439 32.9238 29.1408C32.9303 29.1401 32.936 29.1394 32.9407 29.1388C32.9681 29.1242 32.9767 29.1102 32.9771 29.1095L32.977 29.1095L32.9814 29.1021C32.9881 29.0906 32.9935 29.0807 32.9978 29.0723C32.9902 29.0605 32.9799 29.0455 32.966 29.0272C32.9182 28.9642 32.842 28.8801 32.7226 28.7674C32.7224 28.7672 32.7222 28.767 32.722 28.7669Z" stroke="#328099" stroke-width="1.49333"/>
<path d="M18.522 33.8027L18.5227 33.8028C19.862 33.888 21.1268 33.4509 22.0498 32.5975L22.0507 32.5966C22.1706 32.4863 22.3012 32.3501 22.4238 32.2106C22.3857 32.21 22.3461 32.2094 22.3051 32.2088C21.5913 32.1986 20.466 32.1942 18.823 32.1942C17.1267 32.1942 16.0018 32.1986 15.3017 32.2095C15.2756 32.2099 15.25 32.2103 15.2251 32.2107C15.3884 32.3947 15.5633 32.5722 15.7075 32.6952C16.5104 33.38 17.402 33.7332 18.522 33.8027Z" stroke="#328099" stroke-width="0.995556"/>
<path d="M19.8886 12.707L19.7141 22.1832H18.1638L17.9585 12.707H19.8886ZM18.9543 24.3289C19.3513 24.3289 19.6798 24.4624 19.9399 24.7293C20.2069 24.9962 20.3403 25.3179 20.3403 25.6944C20.3403 26.0777 20.2069 26.4062 19.9399 26.68C19.6798 26.9469 19.3513 27.0804 18.9543 27.0804C18.5642 27.0804 18.2391 26.9469 17.979 26.68C17.7189 26.4062 17.5889 26.0777 17.5889 25.6944C17.5889 25.3179 17.7189 24.9962 17.979 24.7293C18.2391 24.4624 18.5642 24.3289 18.9543 24.3289Z" fill="#328099"/>
</g>
<defs>
<filter id="filter0_d_376_890" x="0.166569" y="0.711002" width="39.8135" height="39.8223" filterUnits="userSpaceOnUse" color-interpolation-filters="sRGB">
<feFlood flood-opacity="0" result="BackgroundImageFix"/>
<feColorMatrix in="SourceAlpha" type="matrix" values="0 0 0 0 0 0 0 0 0 0 0 0 0 0 0 0 0 0 127 0" result="hardAlpha"/>
<feOffset dx="1.24444" dy="1.24444"/>
<feGaussianBlur stdDeviation="2.48889"/>
<feComposite in2="hardAlpha" operator="out"/>
<feColorMatrix type="matrix" values="0 0 0 0 0 0 0 0 0 0 0 0 0 0 0 0 0 0 0.25 0"/>
<feBlend mode="normal" in2="BackgroundImageFix" result="effect1_dropShadow_376_890"/>
<feBlend mode="normal" in="SourceGraphic" in2="effect1_dropShadow_376_890" result="shape"/>
</filter>
</defs>
</svg>
