<svg width="20" height="18" viewBox="0 0 20 18" fill="none" xmlns="http://www.w3.org/2000/svg">
<path d="M17.4928 1.84803H16.598V0.486328H15.1066V1.84803H5.26343V0.486328H3.77205V1.84803H2.87721C1.64309 1.84803 0.640137 2.76377 0.640137 3.89058V15.8735C0.640137 17.0003 1.64309 17.9161 2.87721 17.9161H17.4928C18.7269 17.9161 19.7299 17.0003 19.7299 15.8735V3.89058C19.7299 2.76377 18.7269 1.84803 17.4928 1.84803ZM18.2385 15.8735C18.2385 16.248 17.9029 16.5544 17.4928 16.5544H2.87721C2.46708 16.5544 2.13152 16.248 2.13152 15.8735V6.88632H18.2385V15.8735ZM18.2385 5.52462H2.13152V3.89058C2.13152 3.51611 2.46708 3.20973 2.87721 3.20973H3.77205V4.57143H5.26343V3.20973H15.1066V4.57143H16.598V3.20973H17.4928C17.9029 3.20973 18.2385 3.51611 18.2385 3.89058V5.52462Z" fill="#328099"/>
<path d="M4.96502 8.31592H3.47363V9.67762H4.96502V8.31592Z" fill="#328099"/>
<path d="M7.94793 8.31592H6.45654V9.67762H7.94793V8.31592Z" fill="#328099"/>
<path d="M10.9308 8.31592H9.43945V9.67762H10.9308V8.31592Z" fill="#328099"/>
<path d="M13.9133 8.31592H12.4219V9.67762H13.9133V8.31592Z" fill="#328099"/>
<path d="M16.8962 8.31592H15.4048V9.67762H16.8962V8.31592Z" fill="#328099"/>
<path d="M4.96502 11.0396H3.47363V12.4013H4.96502V11.0396Z" fill="#328099"/>
<path d="M7.94793 11.0396H6.45654V12.4013H7.94793V11.0396Z" fill="#328099"/>
<path d="M10.9308 11.0396H9.43945V12.4013H10.9308V11.0396Z" fill="#328099"/>
<path d="M13.9133 11.0396H12.4219V12.4013H13.9133V11.0396Z" fill="#328099"/>
<path d="M4.96502 13.7627H3.47363V15.1244H4.96502V13.7627Z" fill="#328099"/>
<path d="M7.94793 13.7627H6.45654V15.1244H7.94793V13.7627Z" fill="#328099"/>
<path d="M10.9308 13.7627H9.43945V15.1244H10.9308V13.7627Z" fill="#328099"/>
<path d="M13.9133 13.7627H12.4219V15.1244H13.9133V13.7627Z" fill="#328099"/>
<path d="M16.8962 11.0396H15.4048V12.4013H16.8962V11.0396Z" fill="#328099"/>
</svg>
