<svg width="48" height="55" viewBox="0 0 48 55" fill="none" xmlns="http://www.w3.org/2000/svg">
<g filter="url(#filter0_d_376_1281)">
<path d="M7.21162 46.1832C6.61563 45.9478 5.98459 45.9478 5.3886 45.7461C2.44371 44.8381 0.340212 42.4506 0.0948045 39.525C-0.220719 35.7587 0.235038 32.0261 1.70748 28.4952C2.58394 26.3431 3.95121 24.5272 6.12482 23.3839C7.49209 22.6777 8.96454 22.3751 10.5071 22.3751C11.033 22.3751 11.4887 22.6105 11.9445 22.8459C12.6456 23.2494 13.3118 23.6865 14.0129 24.0901C18.0096 26.4776 22.0413 26.4776 26.0379 24.0901C26.8092 23.6193 27.5805 23.1821 28.3167 22.7114C29.123 22.2406 29.9644 22.3415 30.8058 22.476C33.8909 22.8795 36.0645 24.4936 37.572 27.0493C38.9393 29.4032 39.5003 31.9589 39.8158 34.5818C39.956 35.8933 40.0261 37.2047 39.9911 38.5162C39.9209 42.7196 37.0812 45.6452 32.734 46.0823C32.6639 46.0823 32.6288 46.0823 32.5938 46.1496C24.3902 46.1496 16.1515 46.1496 7.94785 46.1496C7.77255 46.0823 7.56221 46.0823 7.38691 46.1496C7.35186 46.1832 7.28174 46.1832 7.21162 46.1832ZM20.0429 43.4594C24.0045 43.4594 27.931 43.493 31.8926 43.4594C35.2231 43.4258 37.2565 41.4081 37.2215 38.2135C37.2215 37.0366 37.1864 35.8596 37.0111 34.6827C36.7307 32.5305 36.2749 30.4456 35.1881 28.4952C34.2065 26.7803 32.8392 25.536 30.7357 25.1661C30.0696 25.0653 29.5087 25.0653 28.9477 25.5024C28.492 25.8387 27.9661 26.1413 27.4753 26.444C23.1631 28.9997 18.6757 29.3359 14.048 27.251C12.856 26.713 11.8043 25.9396 10.6473 25.267C10.472 25.1661 10.3318 25.0653 10.1215 25.0989C9.17489 25.1661 8.26337 25.3679 7.42197 25.8051C5.77424 26.6794 4.86272 28.1253 4.19662 29.7058C2.96958 32.6314 2.68911 35.7251 2.79429 38.8188C2.82935 40.5002 3.60063 41.8789 5.17825 42.7532C6.22999 43.3249 7.38692 43.493 8.54384 43.493C12.4002 43.4594 16.2216 43.4594 20.0429 43.4594Z" fill="#234A62"/>
<path d="M31 11.4066C31 17.4493 25.9044 22.2968 19.5175 22.3632C13.2004 22.4296 7.96527 17.4825 8.00017 11.4066C8.00017 5.33063 13.1655 0.449951 19.5524 0.449951C25.8695 0.483153 31 5.36383 31 11.4066ZM19.6222 3.1061C14.771 3.00649 10.8621 6.6255 10.7574 11.2738C10.6527 15.756 14.5965 19.6738 19.4477 19.707C24.1594 19.7402 28.2079 16.0216 28.2079 11.473C28.2777 6.95752 24.4386 3.20571 19.6222 3.1061Z" fill="#234A62"/>
</g>
<defs>
<filter id="filter0_d_376_1281" x="0" y="0.449951" width="48" height="53.7332" filterUnits="userSpaceOnUse" color-interpolation-filters="sRGB">
<feFlood flood-opacity="0" result="BackgroundImageFix"/>
<feColorMatrix in="SourceAlpha" type="matrix" values="0 0 0 0 0 0 0 0 0 0 0 0 0 0 0 0 0 0 127 0" result="hardAlpha"/>
<feOffset dx="4" dy="4"/>
<feGaussianBlur stdDeviation="2"/>
<feComposite in2="hardAlpha" operator="out"/>
<feColorMatrix type="matrix" values="0 0 0 0 0 0 0 0 0 0 0 0 0 0 0 0 0 0 0.25 0"/>
<feBlend mode="normal" in2="BackgroundImageFix" result="effect1_dropShadow_376_1281"/>
<feBlend mode="normal" in="SourceGraphic" in2="effect1_dropShadow_376_1281" result="shape"/>
</filter>
</defs>
</svg>
