<svg width="32" height="32" viewBox="0 0 32 32" fill="none" xmlns="http://www.w3.org/2000/svg">
<g filter="url(#filter0_d_376_900)">
<path d="M25.7728 24.6943L19.5762 18.5969C21.1989 16.834 22.1959 14.5024 22.1959 11.9368C22.1951 6.44852 17.6745 2 12.0976 2C6.52065 2 2 6.44852 2 11.9368C2 17.4251 6.52065 21.8737 12.0976 21.8737C14.5072 21.8737 16.7172 21.0402 18.4532 19.6546L24.6738 25.7761C24.9769 26.0746 25.469 26.0746 25.7721 25.7761C26.0759 25.4775 26.0759 24.9929 25.7728 24.6943ZM12.0976 20.3448C7.37888 20.3448 3.55365 16.5804 3.55365 11.9368C3.55365 7.29321 7.37888 3.52884 12.0976 3.52884C16.8163 3.52884 20.6415 7.29321 20.6415 11.9368C20.6415 16.5804 16.8163 20.3448 12.0976 20.3448Z" fill="#328099"/>
</g>
<defs>
<filter id="filter0_d_376_900" x="0.0168746" y="0.0168746" width="31.9325" height="31.9325" filterUnits="userSpaceOnUse" color-interpolation-filters="sRGB">
<feFlood flood-opacity="0" result="BackgroundImageFix"/>
<feColorMatrix in="SourceAlpha" type="matrix" values="0 0 0 0 0 0 0 0 0 0 0 0 0 0 0 0 0 0 127 0" result="hardAlpha"/>
<feOffset dx="1.98313" dy="1.98313"/>
<feGaussianBlur stdDeviation="1.98313"/>
<feComposite in2="hardAlpha" operator="out"/>
<feColorMatrix type="matrix" values="0 0 0 0 0 0 0 0 0 0 0 0 0 0 0 0 0 0 0.25 0"/>
<feBlend mode="normal" in2="BackgroundImageFix" result="effect1_dropShadow_376_900"/>
<feBlend mode="normal" in="SourceGraphic" in2="effect1_dropShadow_376_900" result="shape"/>
</filter>
</defs>
</svg>
