<svg width="26" height="37" viewBox="0 0 26 37" fill="none" xmlns="http://www.w3.org/2000/svg">
<path fill-rule="evenodd" clip-rule="evenodd" d="M13.155 36.1148C13.2061 36.1398 13.2624 36.1529 13.3195 36.1529C13.3775 36.1538 13.435 36.1412 13.4872 36.1161C13.5393 36.0911 13.5847 36.0543 13.6195 36.0087C14.1152 35.3427 25.7718 19.6204 25.7718 13.0399C25.7718 9.80427 24.4601 6.70113 22.1254 4.41317C19.7907 2.12521 16.6242 0.839844 13.3224 0.839844C10.0206 0.839844 6.85408 2.12521 4.51938 4.41317C2.18467 6.70113 0.873047 9.80427 0.873047 13.0399C0.873047 19.6204 12.5296 35.3427 13.0253 36.0087C13.0595 36.0535 13.1039 36.0898 13.155 36.1148ZM9.0661 19.1021C10.326 19.919 11.8072 20.355 13.3224 20.355C15.3536 20.3528 17.3009 19.5689 18.7372 18.1751C20.1734 16.7814 20.9813 14.8917 20.9835 12.9207C20.9835 11.4503 20.5342 10.0129 19.6924 8.79036C18.8506 7.56779 17.6541 6.61491 16.2542 6.05223C14.8543 5.48954 13.3139 5.34232 11.8278 5.62917C10.3417 5.91603 8.97659 6.62408 7.90516 7.66379C6.83373 8.7035 6.10407 10.0282 5.80847 11.4703C5.51286 12.9124 5.66458 14.4072 6.24443 15.7656C6.82428 17.1241 7.80623 18.2852 9.0661 19.1021Z" fill="#F7F7F7"/>
</svg>
