<svg width="105" height="100" viewBox="0 0 105 100" fill="none" xmlns="http://www.w3.org/2000/svg">
<path d="M104.998 39.4433C104.035 41.156 102.625 41.9258 100.615 41.7797C98.9028 41.6562 97.1737 41.7817 95.4529 41.7467C93.3615 41.7015 91.9597 40.4046 91.9185 38.5458C91.8753 36.5512 93.2133 35.2276 95.4302 35.1741C97.429 35.1247 99.4298 35.1926 101.429 35.1556C103.154 35.1226 104.158 36.1395 105 37.4446C104.998 38.1115 104.998 38.7764 104.998 39.4433Z" fill="#328099"/>
<path d="M47.1635 99.1241C37.497 99.1241 27.8325 99.1509 18.166 99.1179C7.709 99.0809 -0.25517 90.8594 0.00625459 80.4354C0.214159 72.1521 6.44511 64.8734 14.7078 63.4407C16.1816 63.1855 16.6448 62.7594 16.6407 61.195C16.6139 51.8681 23.2771 43.8998 32.394 42.1645C41.478 40.4354 50.562 45.2769 54.0572 53.8195C54.6336 55.2275 55.0515 55.5774 56.6159 54.9764C66.8567 51.0426 77.6842 59.612 76.585 70.7503C76.4718 71.9051 76.7126 72.0863 77.7851 72.1665C84.9156 72.6956 90.4817 78.873 90.2738 85.9335C90.0597 93.2307 84.1581 99.0726 76.8279 99.1118C66.9391 99.1632 57.0502 99.1241 47.1635 99.1241Z" fill="#327F98"/>
<path d="M67.3672 17.1172C76.4368 17.1583 84.3927 22.8767 87.3734 31.4976C90.3643 40.1451 87.6575 49.4185 80.5249 55.1595C79.5533 55.9418 78.8905 56.0138 78.0156 55.0299C73.0733 49.4761 66.8773 46.9813 59.4566 47.6153C58.6908 47.6812 58.1886 47.4547 57.7728 46.8393C55.0371 42.7923 51.4698 39.7046 47.0194 37.675C46.054 37.2345 45.9572 36.549 46.0869 35.6392C47.5834 25.0093 56.7003 17.0678 67.3672 17.1172Z" fill="#328098"/>
<path d="M64.0035 7.22022C64.0056 6.11071 63.9541 4.99709 64.0179 3.88963C64.1229 2.07407 65.358 0.853409 67.0809 0.769012C68.7997 0.682557 70.3209 1.75707 70.4485 3.54176C70.6256 6.02426 70.6317 8.53763 70.4527 11.0181C70.3209 12.8625 68.7112 13.9699 66.9368 13.8135C65.2756 13.6673 64.0838 12.3684 64.0097 10.5508C63.9644 9.44335 64.0015 8.32973 64.0035 7.22022Z" fill="#328099"/>
<path d="M94.9525 62.597C94.8352 64.0503 94.2815 65.0404 93.207 65.6682C92.1098 66.3084 90.9015 66.3516 89.9217 65.5591C87.8179 63.8527 85.8459 61.9753 84.2156 59.8119C83.279 58.5707 83.5219 57.1874 84.5697 56.0161C85.6174 54.8448 87.2251 54.4187 88.4602 55.3286C90.7739 57.033 92.7747 59.1058 94.5244 61.3969C94.8084 61.7654 94.8578 62.3129 94.9525 62.597Z" fill="#328099"/>
<path d="M50.7822 18.6714C50.7863 20.0073 50.2161 21.0015 49.0304 21.6397C47.7562 22.3251 46.4923 22.1852 45.4816 21.2568C43.734 19.6512 42.0399 17.9756 40.4549 16.2095C39.2198 14.8344 39.4051 12.92 40.6669 11.7303C41.9102 10.5569 43.6928 10.4396 45.0267 11.6603C46.7785 13.2617 48.4005 15.0073 50.0741 16.6932C50.6175 17.2387 50.7616 17.9344 50.7822 18.6714Z" fill="#328099"/>
<path d="M87.0854 22.0575C85.6753 21.971 84.6893 21.3535 84.0718 20.1801C83.4748 19.0459 83.4975 17.8911 84.325 16.9134C85.9676 14.9702 87.7482 13.1402 89.7058 11.5202C91.0561 10.4025 92.6926 10.6063 93.9174 11.7981C95.0886 12.9364 95.3501 14.7705 94.2385 16.0077C92.5423 17.8973 90.6815 19.6429 88.8515 21.407C88.3698 21.8722 87.6741 21.9936 87.0854 22.0575Z" fill="#328099"/>
</svg>
