<svg width="75" height="105" viewBox="0 0 75 105" fill="none" xmlns="http://www.w3.org/2000/svg">
<path d="M34.686 0.00205933C37.5608 0.735183 40.0155 2.10876 41.7392 4.60673C42.1861 5.25542 42.74 5.08038 43.362 4.86003C49.5297 2.68331 54.4968 4.47288 57.664 10.0454C58.0656 10.7518 58.5805 11.1389 59.3218 11.2728C64.5237 12.2119 69.2375 17.7947 67.6683 24.7285C67.4644 25.6325 67.6436 26.3101 68.1193 27.0576C71.6799 32.6528 70.1024 39.4054 64.429 42.7745C63.4034 43.384 62.7794 44.1357 62.4561 45.291C60.5636 52.0662 53.2488 55.3673 46.9555 52.2495C45.9629 51.7573 45.4707 51.957 44.6696 52.5975C40.4068 56.0016 40.2812 60.6351 40.7384 65.4313C40.9175 67.3053 41.3376 69.1566 41.6651 71.0141C41.939 72.571 43.0634 73.1517 44.4349 72.3692C45.1474 71.9614 45.759 71.3683 46.383 70.8226C48.7698 68.7262 51.1524 68.7674 53.4754 70.9688C53.7987 71.2736 54.1076 71.5928 54.433 71.8955C55.6027 72.989 56.7991 72.9664 58.01 71.9635C58.1809 71.8214 58.3375 71.6628 58.5063 71.5187C62.0566 68.4585 63.4796 68.4688 66.9393 71.5722C68.6691 73.1229 69.4414 73.1188 71.2351 71.5557C71.5275 71.3004 71.7973 71.0079 72.1185 70.7979C72.7693 70.3757 73.4077 70.4684 73.9163 71.0388C74.3735 71.5537 74.3694 72.1179 73.9843 72.7172C71.9373 75.9112 67.8042 76.3478 65.0818 73.6418C62.9607 71.5351 62.5323 71.5289 60.3062 73.5636C57.5261 76.1048 54.748 76.0883 52.0606 73.5121C50.0383 71.5742 49.645 71.5681 47.7051 73.4503C44.9456 76.1254 42.1305 76.1625 39.3401 73.5574C37.1531 71.5166 37.0316 71.5125 34.8384 73.4544C31.6876 76.2428 29.1608 76.1686 26.1027 73.1991C24.5335 71.6752 23.9857 71.671 22.332 73.1661C18.8703 76.2963 16.7451 76.2778 13.2483 73.0837C11.675 71.6484 11.2199 71.6381 9.59093 73.059C8.79602 73.751 8.06084 74.5109 7.07854 74.9598C4.76796 76.0162 1.6316 75.0689 0.311561 72.9231C-0.0632376 72.3156 -0.0488219 71.7534 0.431003 71.2509C0.896413 70.7608 1.47097 70.6043 2.07641 71.0203C2.39355 71.2386 2.67156 71.5166 2.9681 71.7637C4.50025 73.0426 5.36723 73.0426 6.92821 71.7411C7.43892 71.3148 7.90021 70.8226 8.4274 70.419C10.3611 68.9383 12.4699 68.9507 14.3933 70.4499C14.9164 70.8576 15.3694 71.3539 15.8781 71.7843C17.3093 72.9973 18.2937 73.0034 19.7146 71.807C20.1388 71.4486 20.5095 71.0285 20.9358 70.6743C23.2361 68.753 25.6249 68.8415 27.8078 70.8658C28.2712 71.2942 28.6068 72.2106 29.3132 71.9593C29.9413 71.7349 29.7848 70.7999 29.9639 70.1842C31.5702 64.6364 31.2057 58.9711 30.9359 53.31C30.903 52.6201 30.7238 52.1465 29.9392 52.0353C28.6418 51.852 27.5133 51.2363 26.496 50.4517C25.3325 49.5558 24.1134 49.4385 22.7295 49.8215C15.9543 51.6893 9.84011 47.8672 8.6354 40.954C8.36974 39.4301 7.85697 38.1883 6.8273 36.9857C3.21111 32.7681 3.71152 25.9209 7.84667 22.2182C8.81456 21.3532 9.34587 20.4492 9.52915 19.1353C10.3941 12.9079 14.2656 9.40292 20.5548 9.03842C21.2365 8.99929 21.7657 8.87162 21.9593 8.15497C23.1352 3.76446 26.1645 1.28297 30.3573 0C31.7947 0.00205934 33.2403 0.00205933 34.686 0.00205933Z" fill="#327F98"/>
<path d="M69.0029 95.0301C67.3575 95.0898 66.159 94.2269 65.0469 93.1705C62.7384 90.9773 62.5881 90.9732 60.296 93.0119C57.345 95.6355 54.847 95.5861 51.9619 92.8472C49.9643 90.9505 49.4701 90.9629 47.6435 92.9399C45.2402 95.5408 42.4313 95.7138 39.7377 93.4238C37.0399 91.1318 37.0399 91.1318 34.369 93.3044C31.5559 95.5923 29.0971 95.4728 26.3808 92.9151C24.2947 90.9526 24.1135 90.9485 22.0294 92.8328C18.9466 95.619 16.6052 95.6314 13.5821 92.876C11.4939 90.9732 11.3168 90.9711 9.18126 92.8142C6.0696 95.4996 3.411 95.5511 0.845069 92.9563C0.194319 92.2994 -0.433779 91.556 0.400252 90.6602C1.19104 89.8097 1.97153 90.2257 2.73348 90.8455C4.77222 92.5053 5.30559 92.4806 7.28049 90.7508C10.6146 87.8286 12.3259 87.8512 15.6208 90.862C17.3609 92.4518 18.0632 92.4538 19.8939 90.9073C20.487 90.4069 21.0719 89.8859 21.7185 89.4596C23.5369 88.2631 25.2029 88.3208 26.9554 89.6429C27.6185 90.1412 28.2095 90.7343 28.8273 91.2924C29.8982 92.2603 30.9979 92.2953 32.1243 91.3995C32.427 91.1585 32.7174 90.897 33.0098 90.6416C36.0988 87.9254 37.909 87.9151 40.9877 90.6046C43.2035 92.5383 43.461 92.5424 45.7489 90.6787C46.5644 90.0156 47.3284 89.2845 48.3498 88.9118C50.4236 88.156 51.9784 89.0477 53.4631 90.3863C56.0373 92.7051 56.2206 92.6845 58.8586 90.4522C61.8446 87.9233 63.4674 87.9315 66.4349 90.4934C68.8649 92.5898 68.869 92.5959 71.4432 90.5757C72.1331 90.0341 72.8765 89.5069 73.6632 90.2133C74.5301 90.9876 74.0194 91.8052 73.4881 92.5733C72.4029 94.1528 70.8789 94.9086 69.0029 95.0301Z" fill="#328098"/>
<path d="M69.2295 85.2708C67.4441 85.2461 66.1652 84.4717 65.0037 83.335C63.0165 81.3889 62.5387 81.4116 60.4341 83.2567C57.2277 86.0657 54.9583 86.0327 51.8734 83.1332C50.0591 81.428 49.602 81.4383 47.7527 83.2156C44.9314 85.9298 42.1698 85.9709 39.2497 83.3474C37.0586 81.3786 37.0586 81.3786 34.7521 83.3762C31.6693 86.0451 29.2763 85.9833 26.2779 83.162C24.4616 81.4528 24.1321 81.4404 22.2355 83.0034C21.6794 83.4627 21.1461 83.959 20.5468 84.3564C18.5698 85.6682 16.3602 85.5529 14.5171 84.0825C14.3008 83.9096 14.099 83.716 13.891 83.5327C11.3498 81.3086 11.3498 81.3086 8.73653 83.5739C6.04909 85.9009 2.93126 85.7032 0.657753 83.0817C0.087317 82.4248 -0.240117 81.7452 0.474472 81.0368C1.13964 80.3778 1.85011 80.5281 2.5647 81.0677C5.07915 82.9664 5.28714 82.9499 7.61625 80.8967C10.5014 78.3535 12.4042 78.3802 15.3223 81.0038C17.6164 83.0693 18.2342 83.0652 20.4871 80.9729C23.2281 78.4255 25.4892 78.4461 28.1869 81.0471C30.1207 82.9108 30.8373 82.9375 32.8472 81.2345C33.3538 80.8041 33.8481 80.351 34.3958 79.9783C36.2925 78.6871 37.734 78.683 39.6204 79.9742C40.2114 80.3798 40.7489 80.8679 41.2823 81.3519C43.0265 82.9314 43.7988 82.9499 45.576 81.4178C46.0393 81.0182 46.4677 80.5755 46.9557 80.2151C49.0357 78.6747 50.8396 78.6994 52.8846 80.2995C53.4509 80.7423 53.9739 81.2468 54.4908 81.7514C55.607 82.8408 56.7355 82.8222 57.8887 81.8276C58.5189 81.2839 59.1079 80.6826 59.7751 80.1883C61.7829 78.6994 63.5807 78.7118 65.5845 80.2089C66.1158 80.6064 66.5771 81.0965 67.0713 81.5413C68.5787 82.8943 69.4704 82.9005 70.9943 81.6216C71.8407 80.9112 72.6954 79.5623 73.8918 80.8782C75.113 82.223 73.5685 82.9272 72.8416 83.6954C71.8551 84.7374 70.5454 85.2008 69.2295 85.2708Z" fill="#328099"/>
<path d="M68.9205 104.787C67.3719 104.822 66.1671 104.003 65.0633 102.909C62.9731 100.842 62.5901 100.852 60.436 102.86C57.4973 105.599 54.884 105.572 51.9866 102.771C50.1043 100.953 49.7625 100.957 47.9812 102.831C45.4296 105.514 42.3509 105.638 39.5708 103.171C39.1137 102.765 38.6627 102.355 38.1931 101.966C37.4374 101.342 36.6734 101.369 35.934 101.997C35.4275 102.427 34.9456 102.893 34.439 103.323C31.6506 105.695 28.8994 105.543 26.3478 102.882C24.4903 100.945 24.2061 100.938 22.1839 102.775C18.994 105.673 16.7905 105.687 13.6191 102.831C11.5989 101.01 11.3209 101.021 9.22653 102.969C6.2858 105.704 3.24416 105.673 0.768841 102.901C0.200464 102.265 -0.182572 101.597 0.468178 100.846C1.15806 100.049 1.8953 100.255 2.66137 100.844C5.13669 102.749 5.27467 102.734 7.57494 100.718C10.6186 98.0533 12.5544 98.0842 15.5384 100.85C17.5916 102.753 18.2299 102.761 20.3161 100.914C23.5307 98.0656 25.4047 98.0821 28.5019 100.984C30.2153 102.59 31.0205 102.611 32.7936 101.089C33.2981 100.654 33.7676 100.168 34.3113 99.7914C36.3747 98.3581 38.119 98.4116 40.131 99.9293C40.4852 100.197 40.8147 100.496 41.1462 100.792C43.3106 102.726 43.8234 102.726 46.068 100.79C49.1838 98.1006 51.0187 98.1212 54.0109 100.885C56.0332 102.753 56.5089 102.763 58.6629 101.008C59.221 100.553 59.7585 100.063 60.3578 99.6657C62.1988 98.4384 63.7968 98.5001 65.5905 99.8284C65.9468 100.092 66.2722 100.399 66.6058 100.691C68.9637 102.761 69.25 102.769 71.6676 100.823C72.2319 100.37 72.8064 99.7749 73.5828 100.216C74.4333 100.7 74.6866 101.435 74.0256 102.3C72.7529 103.949 71.091 104.804 68.9205 104.787Z" fill="#328099"/>
<path d="M38.3724 49.4672C38.5948 48.4231 38.9614 46.7468 39.3094 45.0664C39.4721 44.2818 40.1002 43.9029 40.7324 43.8761C41.3214 43.8514 41.2493 44.5907 41.3626 45.0396C41.7106 46.4029 42.2728 47.6735 43.1954 48.7341C43.7349 49.3539 43.6834 49.7802 43.0327 50.2065C42.2934 50.6945 41.5953 51.2629 40.8086 51.6563C39.0335 52.5459 38.3189 52.0743 38.3724 49.4672Z" fill="#EFF1F2"/>
<path d="M30.8374 44.0513C32.7855 44.7988 34.328 45.1654 35.9507 45.0974C36.1649 45.0892 36.41 45.0789 36.5953 45.1674C37.106 45.4104 36.828 45.8367 36.7498 46.1786C36.4614 47.4471 36.4594 48.8907 35.2217 49.6856C34.676 50.0378 34.2065 49.4591 33.8481 49.039C32.664 47.6448 31.8691 46.02 30.8374 44.0513Z" fill="#FBFCFC"/>
<path d="M29.3936 44.4507C30.0238 45.7748 30.6539 47.101 31.3418 48.5467C29.7046 48.9133 28.2116 48.3531 27.5752 47.3214C26.9183 46.2526 28.7223 45.5895 29.3936 44.4507Z" fill="#E9EDEF"/>
</svg>
