<svg width="105" height="105" viewBox="0 0 105 105" fill="none" xmlns="http://www.w3.org/2000/svg">
<path d="M20.3081 84.6335C16.5296 84.6335 12.751 84.6462 8.97247 84.6293C5.94369 84.6165 3.81122 82.9079 3.48413 80.2718C3.13792 77.4701 4.67143 75.3921 7.74694 74.6217C8.4521 74.4455 8.76645 74.0677 9.06805 73.4564C11.1665 69.1859 14.8198 67.5368 19.3502 67.7915C23.6852 68.0334 27.0241 69.9861 28.5491 74.2799C28.9102 75.2945 29.3499 75.269 30.1761 74.957C32.3617 74.1314 34.3624 74.4391 35.9682 76.2242C37.4104 77.8288 37.6843 79.7136 36.7965 81.6514C35.8068 83.8079 33.9801 84.6653 31.6438 84.6441C27.8652 84.6102 24.0867 84.6335 20.3081 84.6335Z" fill="#328098"/>
<path d="M77.9647 101.529C74.1288 101.531 70.2908 101.507 66.4549 101.539C64.1738 101.558 62.464 100.675 61.4657 98.5889C60.5205 96.6128 60.888 94.7493 62.2516 93.151C63.7554 91.3894 65.7455 91.0392 67.8737 91.816C68.9548 92.2108 69.4349 92.0113 69.8469 90.8969C71.2551 87.0786 74.8361 84.6759 79.2285 84.6632C83.5954 84.6504 87.1849 86.1744 89.1496 90.3748C89.4703 91.0625 89.8271 91.3979 90.613 91.5549C93.508 92.1344 95.0372 94.2866 94.725 97.1413C94.4446 99.6905 92.412 101.488 89.6466 101.518C85.7512 101.556 81.858 101.526 77.9647 101.529Z" fill="#328098"/>
<path d="M20.4185 10.2652C26.115 10.3077 30.5159 14.7862 30.4521 20.4745C30.3884 26.1628 25.8898 30.5394 20.187 30.4608C14.5754 30.3823 10.234 25.959 10.2446 20.3301C10.2574 14.6397 14.7241 10.2207 20.4185 10.2652Z" fill="#328098"/>
<path d="M94.3774 88.0484C92.829 88.4666 91.6778 87.6706 90.4311 86.17C85.3441 80.0445 75.731 79.5245 69.8434 84.9581C68.5966 86.1085 68.3014 85.4717 67.9552 84.3765C67.112 81.7 68.7538 78.7285 71.5128 78.1258C72.5005 77.9093 73.0421 77.5081 73.5221 76.5785C75.627 72.4926 79.2356 70.9432 83.6301 71.1852C87.8165 71.4165 91.132 73.1952 92.7377 77.3171C93.1051 78.2616 93.377 78.7604 94.5346 78.3147C96.701 77.4848 98.7231 77.8053 100.312 79.62C101.733 81.2437 102.002 83.1349 101.1 85.0642C100.097 87.2058 98.26 88.1036 95.9258 88.0463C95.5265 88.04 95.125 88.0484 94.3774 88.0484Z" fill="#328098"/>
<path d="M83.284 10.2227C78.3754 10.1484 73.6305 10.019 68.9641 9.02564C68.1273 8.84735 67.2819 8.6542 66.4918 8.33795C65.689 8.0132 64.4464 7.89647 64.5229 6.76517C64.593 5.73152 65.7527 5.50229 66.6044 5.23697C69.6226 4.29883 72.7448 3.90616 75.8862 3.71514C83.3243 3.26305 90.7455 3.21211 98.0732 4.88676C98.7932 5.05019 99.5005 5.29853 100.187 5.57445C100.764 5.80793 101.45 6.08597 101.472 6.80762C101.493 7.55687 100.781 7.79459 100.214 8.04716C97.9903 9.03413 95.5987 9.32915 93.2241 9.65602C89.8725 10.1166 86.4954 10.1336 83.284 10.2227Z" fill="#328098"/>
<path d="M82.8843 16.8939C78.4091 16.8897 73.9636 16.6116 69.7518 14.9073C69.0296 14.6144 67.7319 14.4106 68.0483 13.4406C68.3308 12.5725 69.4884 12.3305 70.5716 12.5173C78.8169 13.9373 87.0707 13.9309 95.3223 12.5385C95.5474 12.5003 95.7747 12.4536 96.002 12.4452C96.8813 12.4091 97.7181 12.8017 97.9348 13.5489C98.1281 14.2174 97.1999 14.4764 96.6689 14.7162C93.33 16.2253 89.7405 16.6031 86.1446 16.8812C85.0635 16.964 83.9718 16.8939 82.8843 16.8939Z" fill="#328099"/>
<path d="M52.5436 50.8601C50.717 50.8601 48.8882 50.8219 47.0638 50.875C46.1313 50.9026 45.6258 50.6606 45.8085 49.6354C45.8276 49.5251 45.8191 49.4083 45.8234 49.2937C46.0315 44.0533 46.0315 44.0533 51.18 44.0533C53.236 44.0533 55.292 44.0915 57.3459 44.0363C58.1976 44.0129 58.5969 44.2846 58.6776 45.14C58.8221 46.6703 59.0047 48.1985 59.2001 49.7225C59.3212 50.6606 58.8879 50.8941 58.0256 50.8729C56.199 50.8262 54.3702 50.8601 52.5436 50.8601Z" fill="#328099"/>
<path d="M52.6201 54.1372C54.332 54.1372 56.0503 54.2158 57.7558 54.1118C59.0366 54.0332 59.2469 54.5511 59.2001 55.693C58.9835 60.942 59.0111 60.9441 53.8456 60.9441C51.7896 60.9441 49.7336 60.908 47.6818 60.9611C46.8386 60.9823 46.4308 60.734 46.3501 59.8616C46.212 58.3886 46.0209 56.9177 45.8042 55.4532C45.6407 54.3537 46.1228 54.082 47.1423 54.1202C48.9647 54.186 50.7935 54.1372 52.6201 54.1372Z" fill="#328099"/>
<path d="M54.1471 13.4936C54.1471 17.5497 54.0813 21.6079 54.1833 25.6619C54.2194 27.1222 53.5376 27.1582 52.4289 27.1773C51.2904 27.1964 50.8295 26.9418 50.838 25.6767C50.8932 17.6218 50.9102 9.56483 50.8274 1.50994C50.8125 0.00508848 51.5283 0.070886 52.5839 0.032681C53.699 -0.00552403 54.2066 0.202481 54.179 1.49508C54.094 5.49388 54.1471 9.49479 54.1471 13.4936Z" fill="#328098"/>
<path d="M91.461 54.1395C87.4021 54.1395 83.3411 54.08 79.2821 54.1713C77.9101 54.201 77.84 53.56 77.8527 52.5136C77.8655 51.5075 77.8421 50.8135 79.2482 50.8262C87.366 50.8899 95.4859 50.892 103.606 50.8241C104.999 50.8135 105.014 51.4651 104.997 52.4818C104.98 53.4539 105.08 54.2074 103.638 54.1713C99.581 54.0758 95.5199 54.1395 91.461 54.1395Z" fill="#328098"/>
<path d="M13.4944 54.1395C9.43545 54.1395 5.37441 54.0821 1.31762 54.1713C-0.0141082 54.201 -0.0204802 53.5282 0.0304952 52.5964C0.0772226 51.7325 -0.264737 50.8114 1.29214 50.8241C9.46731 50.8941 17.6446 50.8899 25.8198 50.8262C27.2938 50.8156 27.1324 51.6328 27.1494 52.5688C27.1643 53.5048 27.1664 54.1904 25.8453 54.1649C21.729 54.0906 17.6106 54.1395 13.4944 54.1395Z" fill="#328098"/>
<path d="M54.1469 91.506C54.1469 95.5048 54.0705 99.5057 54.1852 103.502C54.2298 105.033 53.4418 104.912 52.4116 104.963C51.2732 105.02 50.825 104.757 50.8335 103.485C50.8909 95.4305 50.9015 87.3735 50.8293 79.3186C50.8165 77.8392 51.5153 77.8519 52.5985 77.8201C53.7582 77.7861 54.1958 78.0918 54.1745 79.3356C54.1023 83.3917 54.1469 87.4499 54.1469 91.506Z" fill="#328098"/>
<path d="M82.9269 23.8025C79.4138 23.6539 75.9284 23.3928 72.7361 21.75C72.0989 21.421 70.9732 21.1875 71.3406 20.1263C71.6974 19.0948 72.6575 19.3155 73.5474 19.4832C79.8641 20.6739 86.1851 20.6951 92.4996 19.4556C93.3174 19.2943 94.2052 19.0905 94.5726 20.0584C94.9889 21.1578 93.9163 21.3871 93.2664 21.7224C90.0252 23.4013 86.4867 23.673 82.9269 23.8025Z" fill="#338099"/>
<path d="M38.2681 50.8601C37.8115 50.8601 37.3548 50.8601 36.8982 50.8601C33.7207 50.8601 33.7207 50.8601 34.5002 47.8355C35.4751 44.0532 35.4751 44.0532 39.3238 44.0532C42.96 44.0532 42.96 44.0532 42.6414 47.549C42.3398 50.8601 42.3398 50.8601 38.9521 50.8601C38.7248 50.8601 38.4975 50.8601 38.2681 50.8601Z" fill="#338099"/>
<path d="M39.4877 60.944C35.4734 60.944 35.4713 60.944 34.4645 56.9792C34.3795 56.6481 34.3201 56.3106 34.2224 55.9837C33.8146 54.6274 34.1459 53.9992 35.724 54.1095C37.54 54.2369 39.373 54.1732 41.1975 54.1244C42.0449 54.1032 42.3997 54.3324 42.4485 55.2514C42.5271 56.7818 42.7374 58.3121 42.9689 59.8297C43.0899 60.6235 42.954 61.0119 42.0577 60.9567C41.1996 60.9015 40.3415 60.9419 39.4877 60.944Z" fill="#338099"/>
<path d="M66.7655 50.86C62.6789 50.86 62.6789 50.86 62.3094 46.7211C62.0715 44.0531 62.0715 44.0531 64.8093 44.0531C65.4932 44.0531 66.1984 44.1571 66.8589 44.034C68.7832 43.6711 69.5776 44.6496 70.1107 46.3348C71.5465 50.8749 71.5911 50.86 66.7655 50.86Z" fill="#338099"/>
<path d="M66.7868 54.1372C67.8127 54.1372 68.8428 54.1861 69.8666 54.1245C70.8542 54.063 71.056 54.5342 70.8924 55.3662C70.8606 55.5338 70.8584 55.7079 70.8138 55.8713C70.3657 57.5736 70.3721 60.0611 68.9724 60.6427C67.116 61.4132 64.7244 60.9059 62.5622 60.9229C61.8273 60.9292 62.0015 60.3795 62.0525 59.9423C62.1863 58.8131 62.3307 57.6839 62.4709 56.5548C62.7682 54.1372 62.7682 54.1372 65.2469 54.1372C65.7588 54.1372 66.2728 54.1372 66.7868 54.1372Z" fill="#338099"/>
<path d="M82.9802 30.4563C81.0156 30.5073 79.1061 30.2059 77.2625 29.5309C76.3428 29.1935 75.4869 28.7286 74.8773 27.9221C74.5842 27.5337 74.4843 27.0964 74.7392 26.6422C74.9941 26.1901 75.3764 26.3132 75.7863 26.3939C80.6099 27.3363 85.4355 27.3617 90.2548 26.362C90.6733 26.275 91.0216 26.2113 91.285 26.6698C91.5229 27.0837 91.4358 27.4445 91.1894 27.7841C90.5267 28.7032 89.5709 29.2189 88.5365 29.5861C86.7439 30.2207 84.8854 30.5073 82.9802 30.4563Z" fill="#338099"/>
<path d="M57.35 40.5682C54.1152 40.5682 50.8846 40.5682 47.5479 40.5682C48.0534 38.5752 48.8244 36.8178 50.0924 35.3256C51.6705 33.4685 53.2274 33.4663 54.8522 35.2238C55.9567 36.4145 57.0463 38.7429 57.35 40.5682Z" fill="#328099"/>
<path d="M52.6646 64.357C53.8625 64.357 55.0626 64.4016 56.2584 64.3421C57.2184 64.2954 57.6368 64.4525 57.178 65.5307C56.4155 67.3179 55.7125 69.1157 54.1429 70.4019C53.0512 71.2955 51.9849 71.3103 50.8975 70.4231C49.1834 69.0265 48.4252 67.0568 47.6903 65.0723C47.4078 64.3103 47.9196 64.3591 48.3869 64.3591C49.8121 64.3549 51.2373 64.357 52.6646 64.357Z" fill="#328099"/>
<path d="M84.7662 43.8303C84.6749 42.8243 84.6834 41.797 84.4731 40.8164C83.9634 38.4328 82.1304 37.136 80.2549 35.8709C79.4032 35.2957 77.755 34.9561 78.1224 33.7951C78.4304 32.8188 79.8195 33.7994 80.7307 33.7994C82.7888 33.7994 84.8469 33.9734 86.8817 33.5001C87.5868 33.3367 88.2092 33.3643 88.0456 34.3491C87.4955 37.6666 86.4484 40.8312 85.2101 43.9322C85.0636 43.8982 84.9149 43.8643 84.7662 43.8303Z" fill="#338099"/>
<path d="M22.0472 3.35856C22.0472 3.98469 21.9687 4.62144 22.0621 5.23272C22.2809 6.65692 21.6161 6.87554 20.3438 6.92011C18.8655 6.97105 18.462 6.45953 18.6043 5.08203C18.7147 4.01229 18.7126 2.91495 18.6043 1.84521C18.4662 0.491056 18.8167 -0.0225893 20.3183 0.000758242C21.752 0.0219833 22.2724 0.423136 22.0557 1.82399C21.9814 2.3249 22.0472 2.84703 22.0472 3.35856Z" fill="#348199"/>
<path d="M3.46487 18.6427C3.9194 18.6427 4.38668 18.7064 4.82846 18.6321C6.46817 18.3561 7.03102 18.9674 6.89296 20.6442C6.80588 21.7245 6.58924 22.166 5.43804 22.0833C4.0787 21.9856 2.69812 21.9601 1.34302 22.0854C-0.332792 22.2403 0.102622 21.1133 0.0240352 20.2239C-0.0694196 19.1775 0.0537707 18.4283 1.41736 18.6278C2.08641 18.7233 2.78095 18.6448 3.46487 18.6427Z" fill="#348199"/>
<path d="M37.3421 18.6447C37.7393 18.6447 38.1386 18.6447 38.5357 18.6447C40.5472 18.6447 41.2183 19.6083 40.6406 21.5377C40.4431 22.1978 39.9822 22.0471 39.568 22.0534C38.0345 22.0725 36.4946 21.9983 34.9654 22.0789C33.4679 22.1574 33.8651 21.1132 33.8694 20.3533C33.8736 19.6019 33.451 18.511 34.9569 18.6341C35.747 18.6978 36.5477 18.6447 37.3421 18.6447Z" fill="#348199"/>
<path d="M22.0476 37.4394C22.0476 37.9551 21.9817 38.4815 22.0603 38.9846C22.2748 40.3599 21.7014 40.6719 20.3739 40.6974C18.9338 40.725 18.4347 40.3281 18.6067 38.8933C18.7278 37.8766 18.6301 36.8345 18.6301 35.8029C18.6322 34.0221 19.9002 33.222 21.5867 33.8863C22.1134 34.0943 22.0348 34.4827 22.0433 34.8627C22.0582 35.7202 22.0455 36.5798 22.0476 37.4394Z" fill="#348199"/>
<path d="M11.6953 30.6476C11.7654 31.452 7.36454 35.8753 7.10329 35.6758C6.38327 35.1197 5.63138 34.5318 5.13012 33.7932C4.64373 33.0758 5.56129 32.7553 5.93936 32.3414C6.74859 31.4542 7.58968 30.5903 8.49237 29.7986C8.86832 29.4696 9.18054 28.6546 9.85596 29.0918C10.6142 29.5821 11.2493 30.2592 11.6953 30.6476Z" fill="#348199"/>
<path d="M29.0141 10.0637C28.9228 9.24651 33.2578 4.7935 33.5488 5.01849C34.3113 5.6043 35.0717 6.26227 35.6091 7.04548C35.9553 7.55063 35.1673 7.86264 34.8508 8.20649C33.9991 9.13402 33.1006 10.0191 32.181 10.8787C31.805 11.2289 31.5331 12.0588 30.8577 11.6407C30.0952 11.1653 29.4708 10.4648 29.0141 10.0637Z" fill="#348199"/>
<path d="M36.0041 33.7568C35.2374 34.3914 34.5471 35.0728 33.7485 35.5907C33.1474 35.9812 32.8649 35.2383 32.5378 34.9369C31.5268 34.0136 30.6475 32.9397 29.6067 32.0567C28.464 31.0867 29.2733 30.5391 29.9083 29.8981C30.5561 29.2444 31.1211 28.51 32.0727 29.6392C32.9902 30.7259 34.0777 31.6683 35.0823 32.6828C35.3202 32.9227 35.5241 33.1944 36.0041 33.7568Z" fill="#348199"/>
<path d="M11.7164 9.96797C11.2066 10.4328 10.5971 11.129 9.8558 11.6235C9.17188 12.082 8.90426 11.2372 8.53469 10.9061C7.68935 10.1505 6.99269 9.21236 6.09424 8.53528C4.77526 7.54195 5.00677 6.82879 6.10062 5.80787C6.95021 5.01405 7.43022 4.87609 8.22459 5.82485C9.13365 6.90945 10.2169 7.84547 11.2109 8.86003C11.436 9.09138 11.761 9.2824 11.7164 9.96797Z" fill="#348199"/>
<path d="M66.7827 40.6402C64.9242 40.6402 63.3589 40.6296 61.7935 40.6444C61.22 40.6508 61.0522 40.3133 60.8781 39.84C60.3301 38.35 59.7205 36.8812 59.0005 35.0686C62.0909 36.323 64.5738 37.9743 66.7827 40.6402Z" fill="#34819A"/>
<path d="M45.9827 69.9052C42.9178 68.6657 40.4519 67.0122 38.3428 64.5119C40.0717 64.1999 41.688 64.4185 43.2895 64.3591C43.7716 64.3421 43.9501 64.635 44.1051 65.0574C44.6701 66.5962 45.2839 68.1159 45.9827 69.9052Z" fill="#34819A"/>
<path d="M66.7743 64.3549C64.5951 67.0272 62.1015 68.6573 59.0366 69.8989C59.7333 68.1054 60.3726 66.556 60.9312 64.979C61.1691 64.3104 61.6427 64.3571 62.1546 64.3549C63.5734 64.3528 64.9922 64.3549 66.7743 64.3549Z" fill="#34819A"/>
<path d="M45.9739 35.075C45.2708 36.8918 44.6358 38.4434 44.075 40.0225C43.8371 40.6911 43.3593 40.6401 42.8495 40.6401C41.4307 40.6423 40.0097 40.6401 38.3042 40.6401C40.356 37.9425 42.9175 36.3867 45.9739 35.075Z" fill="#34819A"/>
<path d="M23.7933 104.903C22.5359 105.167 21.9221 104.859 21.9922 103.373C22.0517 102.121 22.0984 101.414 23.6956 101.463C25.1038 101.505 25.535 101.847 25.5095 103.28C25.4883 104.604 25.193 105.237 23.7933 104.903Z" fill="#37829B"/>
<path d="M18.6005 99.7837C18.8533 101.023 18.575 101.656 17.0819 101.584C15.8287 101.524 15.1342 101.463 15.1788 99.8814C15.2191 98.4869 15.5505 98.0454 16.982 98.073C18.3031 98.0985 18.9276 98.3956 18.6005 99.7837Z" fill="#38839B"/>
<path d="M18.5984 93.1297C18.9255 94.5199 18.3223 94.8425 16.9842 94.8638C15.5229 94.8871 15.2277 94.3841 15.181 93.0129C15.1279 91.4741 15.8521 91.4635 17.0118 91.4062C18.3882 91.3383 18.9276 91.7713 18.5984 93.1297Z" fill="#39849C"/>
<path d="M22.0751 96.4111C21.7628 95.0485 22.3363 94.6855 23.6808 94.6834C25.0614 94.6791 25.4989 95.0336 25.5223 96.4748C25.5456 98.0221 24.9042 98.1473 23.6256 98.1876C22.1855 98.2343 21.7968 97.6931 22.0751 96.4111Z" fill="#39849C"/>
<path d="M10.1788 104.888C8.71114 105.232 8.41166 104.598 8.39467 103.284C8.37555 101.877 8.79185 101.499 10.2043 101.461C11.7951 101.418 11.8525 102.131 11.895 103.373C11.9459 104.812 11.415 105.228 10.1788 104.888Z" fill="#39849C"/>
<path d="M11.8269 96.6149C12.2028 98.2004 11.1663 98.0795 10.0597 98.1792C8.56656 98.3129 8.46885 97.604 8.39239 96.3899C8.29044 94.7662 9.10392 94.7556 10.3401 94.6835C11.9564 94.5879 11.9777 95.456 11.8269 96.6149Z" fill="#3B859D"/>
<path d="M30.5797 91.4848C32.2003 91.0879 32.0963 92.1215 32.177 93.2401C32.2747 94.5985 31.7203 94.8171 30.5012 94.8596C29.0738 94.9084 28.8338 94.3608 28.802 93.0788C28.768 91.6588 29.2438 91.1855 30.5797 91.4848Z" fill="#37829B"/>
<path d="M32.1086 99.9492C32.4782 101.448 31.6031 101.492 30.4137 101.577C28.8674 101.688 28.8866 100.904 28.8101 99.7582C28.7166 98.3106 29.3283 98.1323 30.5794 98.0772C32.1192 98.0092 32.3125 98.7309 32.1086 99.9492Z" fill="#35829A"/>
</svg>
