<svg width="105" height="105" viewBox="0 0 105 105" fill="none" xmlns="http://www.w3.org/2000/svg">
<path d="M0.00195312 99.6532C0.588499 99.54 0.530874 99.0131 0.648183 98.6138C3.31131 89.6057 10.2037 84.2918 19.6523 84.0572C20.5928 84.0346 21.0147 83.59 21.5025 82.9459C26.6641 76.1152 33.4186 71.6204 41.8114 70.0048C54.6187 67.5372 65.6231 71.0956 74.5592 80.6943C75.1972 81.3797 75.6726 81.6205 76.6625 81.39C90.1428 78.2576 102.985 87.4777 104.494 101.314C104.701 103.222 103.574 104.71 101.602 104.794C98.2742 104.938 94.9422 104.963 91.6102 104.965C62.4537 104.981 33.2993 104.975 4.14276 105C2.47162 105.002 1.03921 104.737 0.318894 103.004C-0.0824272 102.261 0.444435 101.39 0.00195312 100.653C0.00195312 100.32 0.00195312 99.9866 0.00195312 99.6532Z" fill="#327F98"/>
<path d="M55.0242 44.8944C55.6663 45.1908 55.9112 44.6228 56.2343 44.3017C67.3355 33.215 78.4201 22.1118 89.5439 11.0476C90.4021 10.1936 90.3507 9.71403 89.4822 8.97107C88.4326 8.07376 87.5044 7.03238 86.5124 6.06304C84.121 3.72302 84.265 1.84196 86.9858 0C87.6526 0 88.3194 0 88.9862 0C94.156 4.77675 99.0131 9.8725 103.975 14.8592C105.309 16.199 105.206 17.9442 103.965 19.1831C102.814 20.3315 100.927 20.3501 99.6099 19.1235C98.3113 17.9133 97.0517 16.6559 95.856 15.3428C95.1583 14.5772 94.7405 14.4414 93.9152 15.2749C84.8495 24.4209 75.7344 33.5196 66.6398 42.6388C64.5262 44.7586 62.4393 46.9031 60.3381 49.0373C59.6856 49.9161 59.0868 49.4283 58.5537 48.9221C57.3189 47.749 56.1232 46.5347 54.9048 45.3431C54.8677 45.1723 54.913 45.0241 55.0242 44.8944Z" fill="#328098"/>
<path d="M0.00205805 100.653C0.642114 101.365 0.185225 102.224 0.318999 103.004L0.160528 102.981L0 102.985C0.00205806 102.207 0.00205805 101.431 0.00205805 100.653Z" fill="#83B2C1"/>
<path d="M55.0239 44.8946C55.0198 45.0592 55.0156 45.2238 55.0115 45.3885C55.098 46.1808 54.4682 46.5575 54.0237 47.0185C52.5624 48.5332 51.0065 49.9553 49.5927 51.5112C48.4998 52.7152 48.469 54.197 49.4013 55.2733C50.4426 56.4752 51.8915 56.5452 53.1943 55.3413C54.9436 53.7257 56.5571 51.9722 58.2756 50.3237C58.8519 49.7721 59.4528 48.9736 60.3398 49.943C63.1347 52.7893 65.9275 55.6376 68.7264 58.4798C70.5313 60.3135 70.3626 61.8324 68.7285 63.8349C66.8515 66.1378 65.1742 66.4548 62.2065 65.4031C50.2183 61.1573 38.6315 62.5486 27.7299 69.1241C26.5465 69.8382 26.1864 69.5686 25.7295 68.4428C22.6609 60.8774 24.5914 52.6473 30.9323 46.3784C34.3239 43.0238 37.693 39.6445 41.06 36.2651C42.9349 34.382 44.6142 34.3511 46.5015 36.2507C49.3539 39.1238 52.1838 42.0133 55.0239 44.8946Z" fill="#328098"/>
</svg>
