<svg width="75" height="105" viewBox="0 0 75 105" fill="none" xmlns="http://www.w3.org/2000/svg">
<path d="M37.5122 0.00205921C41.052 4.82679 44.6597 9.60415 48.115 14.4886C56.1336 25.8245 63.7815 37.3952 69.6729 50.0202C71.8598 54.7049 73.886 59.4885 74.5017 64.6633C75.4861 72.9228 73.4804 80.6201 68.9913 87.5102C61.2693 99.3589 50.1598 105.234 36.0028 104.993C18.6807 104.698 3.36431 91.1694 0.444356 74.0965C-0.791169 66.879 0.664693 60.2236 3.39109 53.6547C7.58158 43.5584 13.2259 34.2714 19.1976 25.1697C24.7101 16.7661 30.6015 8.63014 36.7853 0.706309C36.95 0.496269 37.0489 0.236809 37.1786 0C37.2898 0.00205921 37.401 0.00205921 37.5122 0.00205921ZM40.5845 92.1187C40.7101 90.0039 39.2728 88.8219 36.3322 88.616C31.9585 88.3092 27.9595 86.9604 24.5021 84.2175C19.3294 80.1115 16.6339 74.7452 16.3579 68.131C16.255 65.6661 14.83 64.2329 12.8511 64.3503C10.934 64.4656 9.78493 65.9791 9.80552 68.3616C9.93319 82.4507 21.6233 94.4415 35.8978 95.1231C38.7951 95.2631 40.461 94.1944 40.5845 92.1187Z" fill="#327F98"/>
</svg>
